<svg xmlns="http://www.w3.org/2000/svg" width="32" height="32" viewBox="0 0 256 257"><defs><linearGradient id="g" x1="-.828%" x2="57.636%" y1="7.652%" y2="78.411%"><stop offset="0%" stop-color="#41D1FF"/><stop offset="100%" stop-color="#BD34FE"/></linearGradient><linearGradient id="y" x1="43.376%" x2="50.316%" y1="2.242%" y2="89.03%"><stop offset="0%" stop-color="#FFEA83"/><stop offset="8.333%" stop-color="#FFDD35"/><stop offset="100%" stop-color="#FFA800"/></linearGradient></defs><path fill="url(#g)" d="M255.153 37.938L134.897 252.976c-2.483 4.51-8.896 4.466-11.327-.08L.875 37.901c-2.746-4.99 1.692-10.947 7.05-9.818l120.77 24.942a6.5 6.5 0 0 0 2.545-.001l116.864-24.885c5.34-1.136 9.787 4.796 7.07 9.79Z"/><path fill="url(#y)" d="M185.432.063L96.44 17.501a4 4 0 0 0-3.2 3.892l-3.236 92.6a4 4 0 0 0 5.554 3.894l24.777-9.315c2.563-.964 5.408.268 6.372 2.83l18.946 50.757c.964 2.582 4.43 2.582 5.394 0l29.207-78.255a4 4 0 0 0-2.214-5.135l-25.505-9.29c-2.58-.94-3.617-3.96-2.243-6.324l40.018-69.43c1.936-3.357-.936-7.39-4.63-6.68Z"/></svg>
